<?xml version="1.0" standalone="no"?>
<!DOCTYPE svg PUBLIC "-//W3C//DTD SVG 20010904//EN"
 "http://www.w3.org/TR/2001/REC-SVG-20010904/DTD/svg10.dtd">
<svg version="1.0" xmlns="http://www.w3.org/2000/svg"
 width="48.000000pt" height="48.000000pt" viewBox="0 0 48.000000 48.000000"
 preserveAspectRatio="xMidYMid meet">

<g transform="translate(0.000000,48.000000) scale(0.100000,-0.100000)"
fill="#034FE5" stroke="none">
<path d="M206 415 c-19 -20 -30 -24 -50 -19 -34 8 -56 -10 -56 -46 0 -19 -8
-33 -25 -44 -28 -19 -32 -51 -10 -76 12 -14 13 -23 5 -45 -9 -22 -7 -31 6 -46
10 -11 25 -19 35 -19 10 0 25 -13 34 -30 16 -32 41 -38 77 -19 14 8 23 8 31 0
6 -6 23 -11 38 -11 20 0 30 7 38 28 8 18 23 31 44 38 30 8 32 12 32 56 0 26 6
52 13 59 20 21 14 49 -13 61 -18 8 -25 19 -25 39 0 38 -26 62 -60 54 -18 -4
-31 -1 -40 10 -29 35 -49 37 -74 10z m124 -127 c0 -18 -102 -118 -120 -118
-19 0 -70 50 -70 68 0 18 31 15 52 -5 18 -16 21 -15 61 25 40 41 77 55 77 30z"/>
</g>
</svg>
